<svg width="427" height="138" viewBox="0 0 427 138" fill="none" xmlns="http://www.w3.org/2000/svg">
<path opacity="0.6" d="M383.922 38.5446C374.946 37.418 360.852 36.7098 348.184 38.0737C347.303 38.1769 346.382 37.9687 345.837 37.5231C336.313 30.3376 322.263 26.2205 307.373 26.2205C295.293 26.2205 283.63 28.9483 274.529 33.9041C273.648 34.375 272.347 34.4275 271.426 34.0091C260.015 28.9212 246.551 26.2477 232.501 26.2477C226.251 26.2477 220.085 26.7711 214.127 27.8471C212.87 28.0572 211.569 27.6641 211.108 26.9034C201.21 10.8026 176.042 0 148.484 0C115.976 0 88.25 14.4742 82.4636 34.4275C82.4636 35.9237 82.7563 38.177 83.6371 39.9086C86.9519 46.3061 97.9393 49.82 108.176 47.7479C111.992 46.9618 115.139 45.3099 116.941 43.0548C118.787 40.7997 119.08 38.2567 117.866 35.8712C115.892 32.0692 109.35 29.9971 103.308 31.2288C98.7391 32.1471 96.1776 35.2408 97.6902 38.1262C98.1074 38.9649 97.3946 39.8289 96.0531 40.1187C94.7115 40.3795 93.3265 39.9339 92.8658 39.0953C90.5159 34.5851 94.5 29.7091 101.715 28.2401C103.392 27.8996 105.114 27.742 106.832 27.742C113.838 27.742 120.34 30.5477 122.647 34.9257C124.281 38.1262 123.864 41.5333 121.43 44.5238C118.996 47.5124 114.844 49.7404 109.726 50.7637C96.8499 53.3593 83.0084 48.9542 78.8562 40.9048C77.9319 39.1478 77.5552 37.0503 77.4306 35.3459C70.8011 33.694 63.7543 32.8553 56.5424 32.8553C25.3765 32.8028 0 48.6662 0 68.174C0 87.6818 25.3765 103.547 56.5829 103.547C58.2606 103.547 59.9383 103.495 61.6159 103.415C61.0712 96.9394 63.7543 90.3571 69.3755 84.7457C75.5415 78.5311 84.8947 73.8652 95.7169 71.6101C99.9531 70.7171 104.273 70.2987 108.51 70.2987C125.457 70.2987 141.269 77.0114 146.934 87.5786C149.701 92.7952 149.072 98.3541 145.172 103.284C141.228 108.188 134.518 111.857 126.17 113.589C112.16 116.525 96.9339 111.779 92.237 102.996C88.4181 95.811 94.6275 88.0242 106.119 85.6369C109.434 84.9558 112.957 84.8761 116.353 85.4014C117.698 85.6115 118.494 86.4773 118.158 87.316C117.822 88.1546 116.437 88.6527 115.096 88.4426C112.665 88.0495 110.106 88.1021 107.713 88.6002C98.8636 90.435 94.0827 96.4395 97.0179 101.973C100.834 109.104 113.166 112.959 124.576 110.573C131.623 109.104 137.328 105.985 140.684 101.843C143.996 97.673 144.54 92.9527 142.193 88.5476C137.244 79.2919 123.4 73.4178 108.553 73.4178C104.821 73.4178 101.045 73.7855 97.354 74.5716C77.5147 78.7159 64.7192 91.3008 66.817 104.516C75.2488 124.234 103.94 138 136.656 138C167.025 138 194.372 125.991 204.69 108.135C204.942 107.742 205.403 107.402 206.035 107.244C206.663 107.059 207.376 107.059 208.005 107.217C215.805 109.131 224.069 110.102 232.541 110.102C255.991 110.102 277.676 102.446 289.84 89.9894C280.904 87.6818 273.312 83.5919 268.195 78.2703C262.49 72.2911 260.436 65.343 262.49 58.7081C265.805 47.9055 280.947 40.3795 297.935 40.3795C300.158 40.3795 302.464 40.5117 304.73 40.7744C320.626 42.6871 331.112 52.3106 328.052 62.2493C325.578 70.3766 312.95 75.7254 299.99 74.1532C289.336 72.8671 282.289 66.4171 284.343 59.7315C285.812 54.8537 292.65 51.472 300.326 51.472C301.331 51.472 302.38 51.5245 303.389 51.6549C304.771 51.8125 305.652 52.6511 305.402 53.4916C305.15 54.3556 303.806 54.9062 302.464 54.7486C296.382 54.015 290.468 56.5328 289.336 60.3347C287.826 65.2904 293.027 70.114 300.998 71.0595C311.273 72.2911 321.214 68.069 323.184 61.6461C325.702 53.4119 317.019 45.4149 303.849 43.8409C287.029 41.8231 270.754 48.7441 267.526 59.2588C263.834 71.2678 275.619 83.7495 294.328 87.6565C298.605 88.3901 303.009 88.7578 307.497 88.7578C323.396 88.7578 337.95 84.1951 347.515 76.2507C347.556 76.2235 347.556 76.1981 347.599 76.1981C350.158 74.2836 352.337 72.2386 354.434 70.2462C361.649 63.4809 369.073 56.4802 392.059 52.8884C405.776 50.7384 418.023 51.76 427 53.3865C417.771 47.6954 403.469 40.9827 383.922 38.5446Z" fill="#FBFFFF" fill-opacity="0.9"/>
</svg>
